<mxfile
  host="Electron" 
  agent="Mozilla/5.0 (Macintosh; Intel Mac OS X 10_15_7) AppleWebKit/537.36 (KHTML, like Gecko) draw.io/25.0.2 Chrome/128.0.6613.186 Electron/32.2.5 Safari/537.36" 
  version="25.0.2"
  >
  <diagram
    name="-"
    >
    <mxGraphModel
      grid="1" 
      gridSize="10" 
      guides="1" 
      tooltips="1" 
      connect="1" 
      arrows="1" 
      fold="1" 
      page="1" 
      pageScale="1" 
      pageWidth="1" 
      pageHeight="1" 
      math="0" 
      shadow="0"
      >
      <root>
        <mxCell
          id="page"
          />
        <mxCell
          id="root" 
          parent="page"
          />
        <mxCell
          style="verticalAlign=top;aspect=fixed;align=center;spacingLeft=5;spacingRight=5;spacingBottom=5;strokeColor=none;" 
          id="shape_" 
          parent="root" 
          value=" " 
          vertex="1"
          >
          <mxGeometry
            as="geometry" 
            width="100" 
            height="86" 
            x="0" 
            y="0"
            />
          </mxCell>
        <mxCell
          style="rounded=1;whiteSpace=wrap;verticalAlign=top;align=center;editableCssRules=.*;html=1;shape=image;verticalLabelPosition=bottom;labelBackgroundColor=#ffffff;aspect=fixed;imageAspect=0;image=data:image/svg+xml,PHN2ZyB4bWxucz0iaHR0cDovL3d3dy53My5vcmcvMjAwMC9zdmciIHhtbG5zOnY9Imh0dHBzOi8vdmVjdGEuaW8vbmFubyIgd2lkdGg9IjM4My41NTc5Nzc2MjM2MzQ3IiBoZWlnaHQ9IjI1Mi40NzIyMzIwMDk5MzQwNiIgdmlld0JveD0iMCAwIDEwMS40ODI5OTQwNzk1ODk4NCA2Ni44MDAwMDMwNTE3NTc4MSI+JiN4YTs8c3R5bGUgdHlwZT0idGV4dC9jc3MiPiYjeGE7CS5zdDB7ZmlsbDojNDI4NWY0O30mI3hhOwkuc3Qxe2ZpbGw6IzY2OWRmNjt9JiN4YTsJLnN0MntmaWxsOiNhZWNiZmE7fSYjeGE7PC9zdHlsZT4mI3hhOwk8cGF0aCBjbGFzcz0ic3QwIiBkPSJNNjguMTQgMzUuMTUzbDE1LjgyNCAxNS44MjRMNjguMTQgNjYuOCA1Mi4zMTYgNTAuOTc3em0tMzUuMDk0IDBMNDguODcgNTAuOTc3IDMzLjA0NiA2Ni44IDE3LjIyMiA1MC45Nzd6Ii8+JiN4YTsJPHBhdGggY2xhc3M9InN0MSIgZD0iTTg1LjY1OSAxNy42MzNsMTUuODI0IDE1LjgyNC0xNS44MjQgMTUuODI0LTE1LjgyNC0xNS44MjR6bS02OS44MzUgMGwxNS44MjQgMTUuODI0LTE1LjgyNCAxNS44MjRMMCAzMy40NTd6Ii8+JiN4YTsJPHBhdGggY2xhc3M9InN0MiIgZD0iTTY4LjE0IDBsMTUuODI0IDE1LjgyNEw2OC4xNCAzMS42NDcgNTIuMzE2IDE1LjgyM3pNMzMuMDQ2IDBMNDguODcgMTUuODIzIDMzLjA0NiAzMS42NDcgMTcuMjIyIDE1LjgyM3oiLz4mI3hhOzwvc3ZnPg;strokeColor=none;" 
          id="cloud_code_" 
          parent="shape_" 
          value=" " 
          vertex="1"
          >
          <mxGeometry
            width="40" 
            height="26" 
            as="geometry" 
            x="30" 
            y="30"
            />
          </mxCell>
        </root>
      </mxGraphModel>
    </diagram>
  </mxfile>